<svg id="Group_689" data-name="Group 689" xmlns="http://www.w3.org/2000/svg" width="106.756" height="47.447" viewBox="0 0 106.756 47.447">
  <rect id="Rectangle_31374" data-name="Rectangle 31374" width="5.931" height="5.931" transform="translate(100.825 35.585)" fill="#fff"/>
  <rect id="Rectangle_31375" data-name="Rectangle 31375" width="5.931" height="5.931" transform="translate(100.825 29.654)" fill="#fff"/>
  <rect id="Rectangle_31376" data-name="Rectangle 31376" width="5.931" height="5.931" transform="translate(100.825 23.724)" fill="#fff"/>
  <rect id="Rectangle_31377" data-name="Rectangle 31377" width="5.931" height="5.931" transform="translate(94.894 41.516)" fill="#c0dbf7"/>
  <rect id="Rectangle_31378" data-name="Rectangle 31378" width="5.931" height="5.931" transform="translate(94.894 35.585)" fill="#dfedfb"/>
  <rect id="Rectangle_31379" data-name="Rectangle 31379" width="5.931" height="5.931" transform="translate(94.894 29.654)" fill="#dfedfb"/>
  <rect id="Rectangle_31380" data-name="Rectangle 31380" width="5.931" height="5.931" transform="translate(94.894 23.724)" fill="#fff"/>
  <rect id="Rectangle_31381" data-name="Rectangle 31381" width="5.931" height="5.931" transform="translate(94.894 17.793)" fill="#fff"/>
  <rect id="Rectangle_31382" data-name="Rectangle 31382" width="5.931" height="5.931" transform="translate(88.963 41.516)" fill="#a0c9f3"/>
  <rect id="Rectangle_31383" data-name="Rectangle 31383" width="5.931" height="5.931" transform="translate(88.963 35.585)" fill="#c0dbf7"/>
  <rect id="Rectangle_31384" data-name="Rectangle 31384" width="5.931" height="5.931" transform="translate(88.963 29.654)" fill="#dfedfb"/>
  <rect id="Rectangle_31385" data-name="Rectangle 31385" width="5.931" height="5.931" transform="translate(88.963 23.724)" fill="#dfedfb"/>
  <rect id="Rectangle_31386" data-name="Rectangle 31386" width="5.931" height="5.931" transform="translate(88.963 17.793)" fill="#fff"/>
  <rect id="Rectangle_31387" data-name="Rectangle 31387" width="5.931" height="5.931" transform="translate(88.963 11.862)" fill="#fff"/>
  <rect id="Rectangle_31388" data-name="Rectangle 31388" width="5.931" height="5.931" transform="translate(83.032 41.516)" fill="#a0c9f3"/>
  <rect id="Rectangle_31389" data-name="Rectangle 31389" width="5.931" height="5.931" transform="translate(83.032 35.585)" fill="#c0dbf7"/>
  <rect id="Rectangle_31390" data-name="Rectangle 31390" width="5.931" height="5.931" transform="translate(83.032 29.654)" fill="#c0dbf7"/>
  <rect id="Rectangle_31391" data-name="Rectangle 31391" width="5.931" height="5.931" transform="translate(83.032 23.724)" fill="#dfedfb"/>
  <rect id="Rectangle_31392" data-name="Rectangle 31392" width="5.931" height="5.931" transform="translate(83.032 17.793)" fill="#dfedfb"/>
  <rect id="Rectangle_31393" data-name="Rectangle 31393" width="5.931" height="5.931" transform="translate(83.032 11.862)" fill="#dfedfb"/>
  <rect id="Rectangle_31394" data-name="Rectangle 31394" width="5.931" height="5.931" transform="translate(83.032 5.931)" fill="#fff"/>
  <rect id="Rectangle_31395" data-name="Rectangle 31395" width="5.931" height="5.931" transform="translate(77.101 41.516)" fill="#a0c9f3"/>
  <rect id="Rectangle_31396" data-name="Rectangle 31396" width="5.931" height="5.931" transform="translate(77.101 35.585)" fill="#a0c9f3"/>
  <rect id="Rectangle_31397" data-name="Rectangle 31397" width="5.931" height="5.931" transform="translate(77.101 29.654)" fill="#c0dbf7"/>
  <rect id="Rectangle_31398" data-name="Rectangle 31398" width="5.931" height="5.931" transform="translate(77.101 23.724)" fill="#c0dbf7"/>
  <rect id="Rectangle_31399" data-name="Rectangle 31399" width="5.931" height="5.931" transform="translate(77.101 17.793)" fill="#dfedfb"/>
  <rect id="Rectangle_31400" data-name="Rectangle 31400" width="5.931" height="5.931" transform="translate(77.101 11.862)" fill="#dfedfb"/>
  <rect id="Rectangle_31401" data-name="Rectangle 31401" width="5.931" height="5.931" transform="translate(77.101 5.931)" fill="#fff"/>
  <rect id="Rectangle_31402" data-name="Rectangle 31402" width="5.931" height="5.931" transform="translate(77.101 0)" fill="#fff"/>
  <rect id="Rectangle_31403" data-name="Rectangle 31403" width="5.931" height="5.931" transform="translate(71.17 41.516)" fill="#c0dbf7"/>
  <rect id="Rectangle_31404" data-name="Rectangle 31404" width="5.931" height="5.931" transform="translate(71.17 35.585)" fill="#a0c9f3"/>
  <rect id="Rectangle_31405" data-name="Rectangle 31405" width="5.931" height="5.931" transform="translate(71.17 29.654)" fill="#a0c9f3"/>
  <rect id="Rectangle_31406" data-name="Rectangle 31406" width="5.931" height="5.931" transform="translate(71.17 23.724)" fill="#c0dbf7"/>
  <rect id="Rectangle_31407" data-name="Rectangle 31407" width="5.931" height="5.931" transform="translate(71.17 17.793)" fill="#c0dbf7"/>
  <rect id="Rectangle_31408" data-name="Rectangle 31408" width="5.931" height="5.931" transform="translate(71.17 11.862)" fill="#dfedfb"/>
  <rect id="Rectangle_31409" data-name="Rectangle 31409" width="5.931" height="5.931" transform="translate(71.17 5.931)" fill="#dfedfb"/>
  <rect id="Rectangle_31410" data-name="Rectangle 31410" width="5.931" height="5.931" transform="translate(71.17 0)" fill="#fff"/>
  <rect id="Rectangle_31411" data-name="Rectangle 31411" width="5.931" height="5.931" transform="translate(65.24 41.516)" fill="#c0dbf7"/>
  <rect id="Rectangle_31412" data-name="Rectangle 31412" width="5.931" height="5.931" transform="translate(65.24 35.585)" fill="#fff"/>
  <rect id="Rectangle_31413" data-name="Rectangle 31413" width="5.931" height="5.931" transform="translate(65.24 29.654)" fill="#a0c9f3"/>
  <rect id="Rectangle_31414" data-name="Rectangle 31414" width="5.931" height="5.931" transform="translate(65.24 23.724)" fill="#c0dbf7"/>
  <rect id="Rectangle_31415" data-name="Rectangle 31415" width="5.931" height="5.931" transform="translate(65.24 17.793)" fill="#c0dbf7"/>
  <rect id="Rectangle_31416" data-name="Rectangle 31416" width="5.931" height="5.931" transform="translate(65.24 11.862)" fill="#c0dbf7"/>
  <rect id="Rectangle_31417" data-name="Rectangle 31417" width="5.931" height="5.931" transform="translate(65.24 5.931)" fill="#dfedfb"/>
  <rect id="Rectangle_31418" data-name="Rectangle 31418" width="5.931" height="5.931" transform="translate(65.24 0)" fill="#fff"/>
  <rect id="Rectangle_31419" data-name="Rectangle 31419" width="5.931" height="5.931" transform="translate(59.309 41.516)" fill="#c0dbf7"/>
  <rect id="Rectangle_31420" data-name="Rectangle 31420" width="5.931" height="5.931" transform="translate(59.309 35.585)" fill="#dfedfb"/>
  <rect id="Rectangle_31421" data-name="Rectangle 31421" width="5.931" height="5.931" transform="translate(59.309 29.654)" fill="#fff"/>
  <rect id="Rectangle_31422" data-name="Rectangle 31422" width="5.931" height="5.931" transform="translate(59.309 23.724)" fill="#a0c9f3"/>
  <rect id="Rectangle_31423" data-name="Rectangle 31423" width="5.931" height="5.931" transform="translate(59.309 17.793)" fill="#c0dbf7"/>
  <rect id="Rectangle_31424" data-name="Rectangle 31424" width="5.931" height="5.931" transform="translate(59.309 11.862)" fill="#dfedfb"/>
  <rect id="Rectangle_31425" data-name="Rectangle 31425" width="5.931" height="5.931" transform="translate(59.309 5.931)" fill="#fff"/>
  <rect id="Rectangle_31426" data-name="Rectangle 31426" width="5.931" height="5.931" transform="translate(59.309 0)" fill="#fff"/>
  <rect id="Rectangle_31427" data-name="Rectangle 31427" width="5.931" height="5.931" transform="translate(53.378 41.516)" fill="#c0dbf7"/>
  <rect id="Rectangle_31428" data-name="Rectangle 31428" width="5.931" height="5.931" transform="translate(53.378 35.585)" fill="#c0dbf7"/>
  <rect id="Rectangle_31429" data-name="Rectangle 31429" width="5.931" height="5.931" transform="translate(53.378 29.654)" fill="#dfedfb"/>
  <rect id="Rectangle_31430" data-name="Rectangle 31430" width="5.931" height="5.931" transform="translate(53.378 23.724)" fill="#fff"/>
  <rect id="Rectangle_31431" data-name="Rectangle 31431" width="5.931" height="5.931" transform="translate(53.378 17.793)" fill="#dfedfb"/>
  <rect id="Rectangle_31432" data-name="Rectangle 31432" width="5.931" height="5.931" transform="translate(53.378 11.862)" fill="#fff"/>
  <rect id="Rectangle_31433" data-name="Rectangle 31433" width="5.931" height="5.931" transform="translate(53.378 5.931)" fill="#fff"/>
  <rect id="Rectangle_31434" data-name="Rectangle 31434" width="5.931" height="5.931" transform="translate(47.447 41.516)" fill="#a0c9f3"/>
  <rect id="Rectangle_31435" data-name="Rectangle 31435" width="5.931" height="5.931" transform="translate(47.447 35.585)" fill="#c0dbf7"/>
  <rect id="Rectangle_31436" data-name="Rectangle 31436" width="5.931" height="5.931" transform="translate(47.447 29.654)" fill="#dfedfb"/>
  <rect id="Rectangle_31437" data-name="Rectangle 31437" width="5.931" height="5.931" transform="translate(47.447 23.724)" fill="#fff"/>
  <rect id="Rectangle_31438" data-name="Rectangle 31438" width="5.931" height="5.931" transform="translate(47.447 17.793)" fill="#fff"/>
  <rect id="Rectangle_31439" data-name="Rectangle 31439" width="5.931" height="5.931" transform="translate(47.447 11.862)" fill="#fff"/>
  <rect id="Rectangle_31440" data-name="Rectangle 31440" width="5.931" height="5.931" transform="translate(41.516 41.516)" fill="#c0dbf7"/>
  <rect id="Rectangle_31441" data-name="Rectangle 31441" width="5.931" height="5.931" transform="translate(41.516 35.585)" fill="#c0dbf7"/>
  <rect id="Rectangle_31442" data-name="Rectangle 31442" width="5.931" height="5.931" transform="translate(41.516 29.654)" fill="#dfedfb"/>
  <rect id="Rectangle_31443" data-name="Rectangle 31443" width="5.931" height="5.931" transform="translate(41.516 23.724)" fill="#fff"/>
  <rect id="Rectangle_31444" data-name="Rectangle 31444" width="5.931" height="5.931" transform="translate(41.516 17.793)" fill="#fff"/>
  <rect id="Rectangle_31445" data-name="Rectangle 31445" width="5.931" height="5.931" transform="translate(35.585 41.516)" fill="#c0dbf7"/>
  <rect id="Rectangle_31446" data-name="Rectangle 31446" width="5.931" height="5.931" transform="translate(35.585 35.585)" fill="#dfedfb"/>
  <rect id="Rectangle_31447" data-name="Rectangle 31447" width="5.931" height="5.931" transform="translate(35.585 29.654)" fill="#fff"/>
  <rect id="Rectangle_31448" data-name="Rectangle 31448" width="5.931" height="5.931" transform="translate(35.585 23.724)" fill="#fff"/>
  <rect id="Rectangle_31449" data-name="Rectangle 31449" width="5.931" height="5.931" transform="translate(29.654 41.516)" fill="#c0dbf7"/>
  <rect id="Rectangle_31450" data-name="Rectangle 31450" width="5.931" height="5.931" transform="translate(29.654 35.585)" fill="#a0c9f3"/>
  <rect id="Rectangle_31451" data-name="Rectangle 31451" width="5.931" height="5.931" transform="translate(29.654 29.654)" fill="#dfedfb"/>
  <rect id="Rectangle_31452" data-name="Rectangle 31452" width="5.931" height="5.931" transform="translate(29.654 23.724)" fill="#fff"/>
  <rect id="Rectangle_31453" data-name="Rectangle 31453" width="5.931" height="5.931" transform="translate(29.654 17.793)" fill="#fff"/>
  <rect id="Rectangle_31454" data-name="Rectangle 31454" width="5.931" height="5.931" transform="translate(23.724 41.516)" fill="#a0c9f3"/>
  <rect id="Rectangle_31455" data-name="Rectangle 31455" width="5.931" height="5.931" transform="translate(23.724 35.585)" fill="#a0c9f3"/>
  <rect id="Rectangle_31456" data-name="Rectangle 31456" width="5.931" height="5.931" transform="translate(23.724 29.654)" fill="#c0dbf7"/>
  <rect id="Rectangle_31457" data-name="Rectangle 31457" width="5.931" height="5.931" transform="translate(23.724 23.724)" fill="#dfedfb"/>
  <rect id="Rectangle_31458" data-name="Rectangle 31458" width="5.931" height="5.931" transform="translate(23.724 17.793)" fill="#fff"/>
  <rect id="Rectangle_31459" data-name="Rectangle 31459" width="5.931" height="5.931" transform="translate(23.724 11.862)" fill="#fff"/>
  <rect id="Rectangle_31460" data-name="Rectangle 31460" width="5.931" height="5.931" transform="translate(17.793 41.516)" fill="#a0c9f3"/>
  <rect id="Rectangle_31461" data-name="Rectangle 31461" width="5.931" height="5.931" transform="translate(17.793 35.585)" fill="#c0dbf7"/>
  <rect id="Rectangle_31462" data-name="Rectangle 31462" width="5.931" height="5.931" transform="translate(17.793 29.654)" fill="#c0dbf7"/>
  <rect id="Rectangle_31463" data-name="Rectangle 31463" width="5.931" height="5.931" transform="translate(17.793 23.724)" fill="#dfedfb"/>
  <rect id="Rectangle_31464" data-name="Rectangle 31464" width="5.931" height="5.931" transform="translate(17.793 17.793)" fill="#fff"/>
  <rect id="Rectangle_31465" data-name="Rectangle 31465" width="5.931" height="5.931" transform="translate(17.793 11.862)" fill="#fff"/>
  <rect id="Rectangle_31466" data-name="Rectangle 31466" width="5.931" height="5.931" transform="translate(11.862 41.516)" fill="#c0dbf7"/>
  <rect id="Rectangle_31467" data-name="Rectangle 31467" width="5.931" height="5.931" transform="translate(11.862 35.585)" fill="#c0dbf7"/>
  <rect id="Rectangle_31468" data-name="Rectangle 31468" width="5.931" height="5.931" transform="translate(11.862 29.654)" fill="#dfedfb"/>
  <rect id="Rectangle_31469" data-name="Rectangle 31469" width="5.931" height="5.931" transform="translate(11.862 23.724)" fill="#dfedfb"/>
  <rect id="Rectangle_31470" data-name="Rectangle 31470" width="5.931" height="5.931" transform="translate(11.862 17.793)" fill="#fff"/>
  <rect id="Rectangle_31471" data-name="Rectangle 31471" width="5.931" height="5.931" transform="translate(5.931 41.516)" fill="#c0dbf7"/>
  <rect id="Rectangle_31472" data-name="Rectangle 31472" width="5.931" height="5.931" transform="translate(5.931 35.585)" fill="#dfedfb"/>
  <rect id="Rectangle_31473" data-name="Rectangle 31473" width="5.931" height="5.931" transform="translate(5.931 29.654)" fill="#dfedfb"/>
  <rect id="Rectangle_31474" data-name="Rectangle 31474" width="5.931" height="5.931" transform="translate(5.931 23.724)" fill="#fff"/>
  <rect id="Rectangle_31475" data-name="Rectangle 31475" width="5.931" height="5.931" transform="translate(0 35.585)" fill="#fff"/>
  <rect id="Rectangle_31476" data-name="Rectangle 31476" width="5.931" height="5.931" transform="translate(0 29.654)" fill="#fff"/>
</svg>
