<svg id="Group_696" data-name="Group 696" xmlns="http://www.w3.org/2000/svg" width="77.101" height="35.585" viewBox="0 0 77.101 35.585">
  <rect id="Rectangle_31477" data-name="Rectangle 31477" width="5.931" height="5.931" transform="translate(0 23.724)" fill="#fff"/>
  <rect id="Rectangle_31478" data-name="Rectangle 31478" width="5.931" height="5.931" transform="translate(0 17.793)" fill="#fff"/>
  <rect id="Rectangle_31479" data-name="Rectangle 31479" width="5.931" height="5.931" transform="translate(5.931 29.654)" fill="#c0dbf7"/>
  <rect id="Rectangle_31480" data-name="Rectangle 31480" width="5.931" height="5.931" transform="translate(5.931 23.724)" fill="#dfedfb"/>
  <rect id="Rectangle_31481" data-name="Rectangle 31481" width="5.931" height="5.931" transform="translate(5.931 17.793)" fill="#fff"/>
  <rect id="Rectangle_31482" data-name="Rectangle 31482" width="5.931" height="5.931" transform="translate(5.931 11.862)" fill="#fff"/>
  <rect id="Rectangle_31483" data-name="Rectangle 31483" width="5.931" height="5.931" transform="translate(11.862 29.654)" fill="#c0dbf7"/>
  <rect id="Rectangle_31484" data-name="Rectangle 31484" width="5.931" height="5.931" transform="translate(11.862 23.724)" fill="#c0dbf7"/>
  <rect id="Rectangle_31485" data-name="Rectangle 31485" width="5.931" height="5.931" transform="translate(11.862 17.793)" fill="#dfedfb"/>
  <rect id="Rectangle_31486" data-name="Rectangle 31486" width="5.931" height="5.931" transform="translate(11.862 11.862)" fill="#fff"/>
  <rect id="Rectangle_31487" data-name="Rectangle 31487" width="5.931" height="5.931" transform="translate(11.862 5.931)" fill="#fff"/>
  <rect id="Rectangle_31488" data-name="Rectangle 31488" width="5.931" height="5.931" transform="translate(17.793 29.654)" fill="#a0c9f3"/>
  <rect id="Rectangle_31489" data-name="Rectangle 31489" width="5.931" height="5.931" transform="translate(17.793 23.724)" fill="#c0dbf7"/>
  <rect id="Rectangle_31490" data-name="Rectangle 31490" width="5.931" height="5.931" transform="translate(17.793 17.793)" fill="#dfedfb"/>
  <rect id="Rectangle_31491" data-name="Rectangle 31491" width="5.931" height="5.931" transform="translate(17.793 11.862)" fill="#dfedfb"/>
  <rect id="Rectangle_31492" data-name="Rectangle 31492" width="5.931" height="5.931" transform="translate(17.793 5.931)" fill="#fff"/>
  <rect id="Rectangle_31493" data-name="Rectangle 31493" width="5.931" height="5.931" transform="translate(17.793)" fill="#fff"/>
  <rect id="Rectangle_31494" data-name="Rectangle 31494" width="5.931" height="5.931" transform="translate(23.724 29.654)" fill="#a0c9f3"/>
  <rect id="Rectangle_31495" data-name="Rectangle 31495" width="5.931" height="5.931" transform="translate(23.724 23.724)" fill="#c0dbf7"/>
  <rect id="Rectangle_31496" data-name="Rectangle 31496" width="5.931" height="5.931" transform="translate(23.724 17.793)" fill="#c0dbf7"/>
  <rect id="Rectangle_31497" data-name="Rectangle 31497" width="5.931" height="5.931" transform="translate(23.724 11.862)" fill="#dfedfb"/>
  <rect id="Rectangle_31498" data-name="Rectangle 31498" width="5.931" height="5.931" transform="translate(23.724 5.931)" fill="#dfedfb"/>
  <rect id="Rectangle_31499" data-name="Rectangle 31499" width="5.931" height="5.931" transform="translate(23.724)" fill="#fff"/>
  <rect id="Rectangle_31500" data-name="Rectangle 31500" width="5.931" height="5.931" transform="translate(29.654 29.654)" fill="#a0c9f3"/>
  <rect id="Rectangle_31501" data-name="Rectangle 31501" width="5.931" height="5.931" transform="translate(29.654 23.724)" fill="#a0c9f3"/>
  <rect id="Rectangle_31502" data-name="Rectangle 31502" width="5.931" height="5.931" transform="translate(29.654 17.793)" fill="#c0dbf7"/>
  <rect id="Rectangle_31503" data-name="Rectangle 31503" width="5.931" height="5.931" transform="translate(29.654 11.862)" fill="#c0dbf7"/>
  <rect id="Rectangle_31504" data-name="Rectangle 31504" width="5.931" height="5.931" transform="translate(29.654 5.931)" fill="#dfedfb"/>
  <rect id="Rectangle_31505" data-name="Rectangle 31505" width="5.931" height="5.931" transform="translate(29.654)" fill="#fff"/>
  <rect id="Rectangle_31506" data-name="Rectangle 31506" width="5.931" height="5.931" transform="translate(35.585 29.654)" fill="#dfedfb"/>
  <rect id="Rectangle_31507" data-name="Rectangle 31507" width="5.931" height="5.931" transform="translate(35.585 23.724)" fill="#a0c9f3"/>
  <rect id="Rectangle_31508" data-name="Rectangle 31508" width="5.931" height="5.931" transform="translate(35.585 17.793)" fill="#a0c9f3"/>
  <rect id="Rectangle_31509" data-name="Rectangle 31509" width="5.931" height="5.931" transform="translate(35.585 11.862)" fill="#c0dbf7"/>
  <rect id="Rectangle_31510" data-name="Rectangle 31510" width="5.931" height="5.931" transform="translate(35.585 5.931)" fill="#dfedfb"/>
  <rect id="Rectangle_31511" data-name="Rectangle 31511" width="5.931" height="5.931" transform="translate(35.585)" fill="#fff"/>
  <rect id="Rectangle_31512" data-name="Rectangle 31512" width="5.931" height="5.931" transform="translate(41.516 29.654)" fill="#dfedfb"/>
  <rect id="Rectangle_31513" data-name="Rectangle 31513" width="5.931" height="5.931" transform="translate(41.516 23.724)" fill="#fff"/>
  <rect id="Rectangle_31514" data-name="Rectangle 31514" width="5.931" height="5.931" transform="translate(41.516 17.793)" fill="#fff"/>
  <rect id="Rectangle_31515" data-name="Rectangle 31515" width="5.931" height="5.931" transform="translate(41.516 11.862)" fill="#c0dbf7"/>
  <rect id="Rectangle_31516" data-name="Rectangle 31516" width="5.931" height="5.931" transform="translate(41.516 5.931)" fill="#fff"/>
  <rect id="Rectangle_31517" data-name="Rectangle 31517" width="5.931" height="5.931" transform="translate(47.447 29.654)" fill="#c0dbf7"/>
  <rect id="Rectangle_31518" data-name="Rectangle 31518" width="5.931" height="5.931" transform="translate(47.447 23.724)" fill="#dfedfb"/>
  <rect id="Rectangle_31519" data-name="Rectangle 31519" width="5.931" height="5.931" transform="translate(47.447 17.793)" fill="#fff"/>
  <rect id="Rectangle_31520" data-name="Rectangle 31520" width="5.931" height="5.931" transform="translate(47.447 11.862)" fill="#fff"/>
  <rect id="Rectangle_31521" data-name="Rectangle 31521" width="5.931" height="5.931" transform="translate(53.378 29.654)" fill="#c0dbf7"/>
  <rect id="Rectangle_31522" data-name="Rectangle 31522" width="5.931" height="5.931" transform="translate(53.378 23.724)" fill="#c0dbf7"/>
  <rect id="Rectangle_31523" data-name="Rectangle 31523" width="5.931" height="5.931" transform="translate(53.378 17.793)" fill="#dfedfb"/>
  <rect id="Rectangle_31524" data-name="Rectangle 31524" width="5.931" height="5.931" transform="translate(53.378 11.862)" fill="#fff"/>
  <rect id="Rectangle_31525" data-name="Rectangle 31525" width="5.931" height="5.931" transform="translate(53.378 5.931)" fill="#fff"/>
  <rect id="Rectangle_31526" data-name="Rectangle 31526" width="5.931" height="5.931" transform="translate(59.309 29.654)" fill="#a0c9f3"/>
  <rect id="Rectangle_31527" data-name="Rectangle 31527" width="5.931" height="5.931" transform="translate(59.309 23.724)" fill="#c0dbf7"/>
  <rect id="Rectangle_31528" data-name="Rectangle 31528" width="5.931" height="5.931" transform="translate(59.309 17.793)" fill="#dfedfb"/>
  <rect id="Rectangle_31529" data-name="Rectangle 31529" width="5.931" height="5.931" transform="translate(59.309 11.862)" fill="#fff"/>
  <rect id="Rectangle_31530" data-name="Rectangle 31530" width="5.931" height="5.931" transform="translate(59.309 5.931)" fill="#fff"/>
  <rect id="Rectangle_31531" data-name="Rectangle 31531" width="5.931" height="5.931" transform="translate(65.24 29.654)" fill="#a0c9f3"/>
  <rect id="Rectangle_31532" data-name="Rectangle 31532" width="5.931" height="5.931" transform="translate(65.24 23.724)" fill="#c0dbf7"/>
  <rect id="Rectangle_31533" data-name="Rectangle 31533" width="5.931" height="5.931" transform="translate(65.24 17.793)" fill="#dfedfb"/>
  <rect id="Rectangle_31534" data-name="Rectangle 31534" width="5.931" height="5.931" transform="translate(65.24 11.862)" fill="#fff"/>
  <rect id="Rectangle_31535" data-name="Rectangle 31535" width="5.931" height="5.931" transform="translate(71.17 23.724)" fill="#dfedfb"/>
  <rect id="Rectangle_31536" data-name="Rectangle 31536" width="5.931" height="5.931" transform="translate(71.17 17.793)" fill="#fff"/>
</svg>
