<svg xmlns="http://www.w3.org/2000/svg" width="290.677" height="122.953" viewBox="0 0 290.677 122.953">
  <g id="Group_687" data-name="Group 687" transform="translate(-112.642 -732.998)">
    <g id="Group_677" data-name="Group 677" transform="translate(172.169 732.998)">
      <path id="Path_2952" data-name="Path 2952" d="M182.881,789.5h-17.54V741.264h4.385v-4.385h39.463v4.385h4.385V789.5H196.035V767.573H182.881Zm0-30.694h13.154v-8.769H182.881Z" transform="translate(-165.341 -732.495)" fill="#e28413"/>
      <path id="Path_2953" data-name="Path 2953" d="M182.881,785.614h-17.54V737.382h4.385V733h39.463v4.384h4.385v48.233H196.035V763.691H182.881Zm0-30.693h13.154v-8.77H182.881Z" transform="translate(-165.341 -732.997)" fill="#ffe000"/>
      <rect id="Rectangle_30997" data-name="Rectangle 30997" width="4.385" height="4.385" transform="translate(4.385)" fill="#fff"/>
    </g>
    <g id="Group_678" data-name="Group 678" transform="translate(350.701 732.998)">
      <path id="Path_2954" data-name="Path 2954" d="M323.394,736.88h17.54v13.154h4.384v4.385h8.77v-4.385h4.385V736.88h17.539v17.539h-4.385v8.769h-4.385v4.385h-8.769V789.5H340.934V767.573h-8.77v-4.385h-4.385v-8.769h-4.385Z" transform="translate(-323.394 -732.495)" fill="#e28413"/>
      <path id="Path_2955" data-name="Path 2955" d="M323.394,733h17.54v13.154h4.384v4.385h8.77v-4.385h4.385V733h17.539v17.539h-4.385v8.769h-4.385v4.385h-8.769v21.924H340.934V763.691h-8.77v-4.385h-4.385v-8.769h-4.385Z" transform="translate(-323.394 -732.998)" fill="#ffe000"/>
      <rect id="Rectangle_30998" data-name="Rectangle 30998" width="4.385" height="4.385" transform="translate(0)" fill="#fff"/>
      <rect id="Rectangle_30999" data-name="Rectangle 30999" width="4.385" height="4.385" transform="translate(35.078)" fill="#fff"/>
    </g>
    <g id="Group_679" data-name="Group 679" transform="translate(231.646 732.998)">
      <path id="Path_2956" data-name="Path 2956" d="M235.534,789.5H217.995V736.879h43.848v4.385h4.385v26.309h-4.385v4.385H235.534Zm0-30.694h13.155v-8.769H235.534Z" transform="translate(-217.995 -732.495)" fill="#e28413"/>
      <path id="Path_2957" data-name="Path 2957" d="M235.534,785.614H217.995V733h43.848v4.384h4.385v26.309h-4.385v4.385H235.534Zm0-30.693h13.155v-8.77H235.534Z" transform="translate(-217.995 -732.997)" fill="#ffe000"/>
      <rect id="Rectangle_31000" data-name="Rectangle 31000" width="4.385" height="4.385" fill="#fff"/>
    </g>
    <g id="Group_680" data-name="Group 680" transform="translate(291.174 732.998)">
      <path id="Path_2958" data-name="Path 2958" d="M288.234,789.5H270.695V736.879h43.848v4.385h4.384v26.309h-4.384v4.385H288.234Zm0-30.694h13.154v-8.769H288.234Z" transform="translate(-270.695 -732.495)" fill="#e28413"/>
      <path id="Path_2959" data-name="Path 2959" d="M288.234,785.614H270.695V733h43.848v4.384h4.384v26.309h-4.384v4.385H288.234Zm0-30.693h13.154v-8.77H288.234Z" transform="translate(-270.695 -732.997)" fill="#ffe000"/>
      <rect id="Rectangle_31001" data-name="Rectangle 31001" width="4.385" height="4.385" transform="translate(0)" fill="#fff"/>
    </g>
    <g id="Group_685" data-name="Group 685" transform="translate(112.642 798.949)">
      <g id="Group_681" data-name="Group 681" transform="translate(59.527)">
        <path id="Path_2960" data-name="Path 2960" d="M182.881,847.882h-17.54V799.651h4.385v-4.385h39.463v4.385h4.385v48.232H196.035V825.959H182.881Zm0-30.693h13.154v-8.77H182.881Z" transform="translate(-165.341 -790.881)" fill="#e28413"/>
        <path id="Path_2961" data-name="Path 2961" d="M182.881,844h-17.54V795.769h4.385v-4.385h39.463v4.385h4.385V844H196.035V822.078H182.881Zm0-30.694h13.154v-8.77H182.881Z" transform="translate(-165.341 -791.384)" fill="#ffe000"/>
        <rect id="Rectangle_31002" data-name="Rectangle 31002" width="4.385" height="4.385" transform="translate(4.385 0)" fill="#fff"/>
      </g>
      <g id="Group_682" data-name="Group 682" transform="translate(119.004)">
        <path id="Path_2962" data-name="Path 2962" d="M235.534,847.882H217.995V795.266h17.539v4.385h4.385v4.384H244.3v4.385h4.385v-4.385h4.385v-4.384h4.384v-4.385H275v52.617h-17.54V817.19h-4.384v4.385h-4.385v4.384H244.3v-4.384h-4.385V817.19h-4.385Z" transform="translate(-217.995 -790.881)" fill="#e28413"/>
        <path id="Path_2963" data-name="Path 2963" d="M235.534,844H217.995V791.384h17.539v4.385h4.385v4.385H244.3v4.384h4.385v-4.384h4.385v-4.385h4.384v-4.385H275V844h-17.54V813.308h-4.384v4.385h-4.385v4.385H244.3v-4.385h-4.385v-4.385h-4.385Z" transform="translate(-217.995 -791.384)" fill="#ffe000"/>
        <rect id="Rectangle_31003" data-name="Rectangle 31003" width="4.385" height="4.385" transform="translate(0 0)" fill="#fff"/>
        <rect id="Rectangle_31004" data-name="Rectangle 31004" width="4.385" height="4.385" transform="translate(39.465 0)" fill="#fff"/>
      </g>
      <g id="Group_683" data-name="Group 683" transform="translate(187.302)">
        <path id="Path_2964" data-name="Path 2964" d="M282.843,843.5h-4.384V799.651h4.384v-4.385H326.69V808.42H296v8.77h13.154v8.769H296v8.77H326.69v13.154H282.843Z" transform="translate(-278.459 -790.881)" fill="#e28413"/>
        <path id="Path_2965" data-name="Path 2965" d="M282.843,839.617h-4.384V795.769h4.384v-4.385H326.69v13.154H296v8.77h13.154v8.77H296v8.769H326.69V844H282.843Z" transform="translate(-278.459 -791.384)" fill="#ffe000"/>
        <rect id="Rectangle_31005" data-name="Rectangle 31005" width="4.385" height="4.385" transform="translate(4.526 0)" fill="#fff"/>
      </g>
      <g id="Group_684" data-name="Group 684">
        <path id="Path_2966" data-name="Path 2966" d="M156.49,847.882H117.026V843.5h-4.384V799.651h4.384v-4.385h43.848V808.42H130.181v26.309h13.154v-8.77h-8.769V817.19H156.49v4.385h4.384V843.5H156.49Z" transform="translate(-112.642 -790.881)" fill="#e28413"/>
        <path id="Path_2967" data-name="Path 2967" d="M156.49,844H117.026v-4.385h-4.384V795.769h4.384v-4.385h43.848v13.154H130.181v26.309h13.154v-8.769h-8.769v-8.77H156.49v4.385h4.384v21.924H156.49Z" transform="translate(-112.642 -791.384)" fill="#ffe000"/>
        <rect id="Rectangle_31006" data-name="Rectangle 31006" width="4.385" height="4.385" transform="translate(4.244 0)" fill="#fff"/>
      </g>
    </g>
    <g id="Group_686" data-name="Group 686" transform="translate(112.642 732.998)">
      <path id="Path_2968" data-name="Path 2968" d="M130.181,789.5H112.642V736.879h17.539V758.8h13.154V736.879h17.539V789.5H143.335V767.573H130.181Z" transform="translate(-112.642 -732.495)" fill="#e28413"/>
      <path id="Path_2969" data-name="Path 2969" d="M130.181,785.614H112.642V733h17.539v21.924h13.154V733h17.539v52.616H143.335V763.691H130.181Z" transform="translate(-112.642 -732.997)" fill="#ffe000"/>
      <rect id="Rectangle_31007" data-name="Rectangle 31007" width="4.385" height="4.385" fill="#fff"/>
      <rect id="Rectangle_31008" data-name="Rectangle 31008" width="4.385" height="4.385" transform="translate(30.761)" fill="#fff"/>
    </g>
  </g>
</svg>
